<?xml version="1.0" encoding="UTF-8" standalone="no" ?>
<!DOCTYPE svg PUBLIC "-//W3C//DTD SVG 1.1//EN" "http://www.w3.org/Graphics/SVG/1.1/DTD/svg11.dtd">
<svg xmlns="http://www.w3.org/2000/svg" xmlns:xlink="http://www.w3.org/1999/xlink" version="1.1" width="500" height="500" viewBox="0 0 500 500" xml:space="preserve">
<desc>Created with Fabric.js 4.6.0</desc>
<defs>
</defs>
<g transform="matrix(6.24 0 0 6.24 250 250)" id="e7u4gV7Gd9XUexGl4R5V8"  >
<path style="stroke: none; stroke-width: 1; stroke-dasharray: none; stroke-linecap: butt; stroke-dashoffset: 0; stroke-linejoin: miter; stroke-miterlimit: 4; fill: rgb(88,88,88); fill-rule: nonzero; opacity: 1;" vector-effect="non-scaling-stroke"  transform=" translate(0, 0)" d="M -40 -9.44 L 0 -40 L 40 -9.440000000000001 L 24.72 40 L -24.72 40 z" stroke-linecap="round" />
</g>
<g transform="matrix(1 0 0 1 250.19 301.16)" id="ifWiZNsQFzekQIr5H-p3N"  >
<path style="stroke: rgb(255,255,255); stroke-width: 18; stroke-dasharray: none; stroke-linecap: butt; stroke-dashoffset: 0; stroke-linejoin: miter; stroke-miterlimit: 4; fill: rgb(255,255,255); fill-opacity: 0; fill-rule: nonzero; opacity: 1;" vector-effect="non-scaling-stroke"  transform=" translate(0, 0)" d="M -114.41587 100.24493 C -114.41587 100.24493 -104.71759 166.51648 -30.90294 165.4389 C 42.91172 164.36131 26.209130000000002 94.31821 26.209130000000002 94.31821 C 26.209130000000002 94.31821 -13.097569999999997 -64.29068000000001 3.5798200000000016 -112.03955000000002 C 20.25721 -159.78842000000003 54.20422000000001 -110.80915000000002 92.9187 -96.67726000000002 C 122.1135 -86.02033000000002 149.95526999999998 -97.21511000000002 157.13586 -112.03955000000002 C 173.83845000000002 -146.52231 140.00122000000002 -164.78075 105.41172 -165.38007000000002 C 70.82222 -165.97938000000002 40.420770000000005 -162.86933000000002 8.848390000000009 -154.48993000000002 C -47.99427999999999 -139.40372000000002 -144.04949 -91.02662000000001 -158.05811 -121.19904000000002 C -172.06673 -151.37145000000004 -139.20035000000001 -154.48993000000002 -139.20035000000001 -154.48993000000002 L -129.50207 -154.48993000000002" stroke-linecap="round" />
</g>
<g transform="matrix(0.99 0 0 0.99 249.38 303.15)" id="P9jfDOQOED2Y3xmSMn-4a"  >
<path style="stroke: rgb(170,214,219); stroke-width: 8; stroke-dasharray: none; stroke-linecap: butt; stroke-dashoffset: 0; stroke-linejoin: miter; stroke-miterlimit: 4; fill: rgb(255,255,255); fill-opacity: 0; fill-rule: nonzero; opacity: 1;" vector-effect="non-scaling-stroke"  transform=" translate(0, 0)" d="M -114.09364 99.40901 C -111.0432 123.00496 -102.93341 167.02783 -29.118759999999995 165.95024 C 44.69590000000001 164.87265000000002 26.836030000000008 94.70096000000001 26.836030000000008 94.70096000000001 C 26.836030000000008 94.70096000000001 -11.556659999999994 -73.06741 5.120730000000009 -120.81627999999998 C 21.798120000000008 -168.56514999999996 72.75127 -103.45908999999997 110.30243000000002 -100.86454999999998 C 147.85360000000003 -98.27000999999998 155.15221000000003 -108.42918999999998 160.20011000000002 -127.21433999999998 C 165.24801000000002 -145.99948999999998 142.75924000000003 -165.31201 108.16974000000002 -165.91132 C 73.58024000000002 -166.51063 41.04766000000002 -162.48657 9.475280000000012 -154.10717 C -47.367389999999986 -139.02096 -143.4226 -90.64385999999999 -157.43122 -120.81628 C -171.43984 -150.98869000000002 -138.57346 -154.10717 -138.57346 -154.10717 L -131.06171 -154.10717" stroke-linecap="round" />
</g>
</svg>